<svg id="Layer_1" data-name="Layer 1" xmlns="http://www.w3.org/2000/svg" viewBox="0 0 876 168"><defs><style>.cls-1{fill:#da3ab3;}.cls-2{fill:#ff4338;}.cls-3{fill:#ffc843;}.cls-4{fill:#da2d2f;}.cls-5{fill:#00b3e3;}.cls-6{fill:#00299f;}.cls-7{fill:#002f32;}.cls-8{fill:#05ce7c;}.cls-9{fill:#042f57;}.cls-10{fill:#008c3c;}.cls-11{fill:#ff6b00;}.cls-12{fill:#055600;}</style></defs><title>Artboard 5comingout</title><path class="cls-1" d="M69.73,25A36.78,36.78,0,0,0,33,61.75v37a36.75,36.75,0,1,0,73.5,0H87.37a17.64,17.64,0,0,1-35.28,0v-37a17.64,17.64,0,0,1,35.28,0h19.11A36.78,36.78,0,0,0,69.73,25"/><path class="cls-2" d="M154.26,25.06a36.78,36.78,0,0,0-36.75,36.75v37a36.75,36.75,0,0,0,73.5,0v-37a36.8,36.8,0,0,0-36.75-36.75m0,91.41a17.67,17.67,0,0,1-17.65-17.64v-37a17.65,17.65,0,1,1,35.29,0v37a17.66,17.66,0,0,1-17.64,17.64"/><path class="cls-3" d="M288.6,25.1A33.13,33.13,0,0,0,264.92,35a33.07,33.07,0,0,1,9.55,23.29h0a14.13,14.13,0,0,1,28.26,0v77.29h19.1V58.33A33.27,33.27,0,0,0,288.6,25.1"/><path class="cls-1" d="M241.24,25.1a33.07,33.07,0,0,0-19.19,6.11A18.63,18.63,0,0,1,227.12,44V58.33a14.13,14.13,0,0,1,28.25,0h0A33.07,33.07,0,0,1,264.92,35a33.13,33.13,0,0,0-23.68-9.94"/><path class="cls-4" d="M264.92,35a33.07,33.07,0,0,0-9.55,23.29v77.29h19.1V58.33A33.07,33.07,0,0,0,264.92,35"/><path class="cls-5" d="M208.43,25.3h-9.56V44.41H208V58.33a33.25,33.25,0,0,1,14.05-27.12,18.66,18.66,0,0,0-13.62-5.91"/><path class="cls-6" d="M222.05,31.21a33.24,33.24,0,0,0-14,27.12v77.29h19.1V44a18.57,18.57,0,0,0-5.06-12.78"/><path class="cls-5" d="M361.83,25.31h-19.1v.22h19.1v-.22m0,19.32h-19.1v72.1h19.1V44.63"/><path class="cls-2" d="M370.11,116.73h-8.28v19.11h8.28V116.73m-27.38,0h-8.29v19.11h8.29V116.73"/><polyline class="cls-7" points="361.83 116.73 342.73 116.73 342.73 135.84 361.83 135.84 361.83 116.73"/><path class="cls-2" d="M370.11,25.53h-8.28v19.1h8.28V25.53m-27.38,0h-8.29v19.1h8.29V25.53"/><polyline class="cls-7" points="361.83 25.52 342.73 25.52 342.73 44.63 361.83 44.63 361.83 25.52"/><path class="cls-1" d="M389.18,25.3h-9.55V44.41h9.13V60.19A35.07,35.07,0,0,1,403.3,31.76a18.66,18.66,0,0,0-14.12-6.46"/><path class="cls-8" d="M423.85,25.1a34.87,34.87,0,0,0-20.55,6.66A18.56,18.56,0,0,1,407.86,44v16.2a16,16,0,1,1,32,0v75.43h19.11V60.19A35.13,35.13,0,0,0,423.84,25.1"/><path class="cls-9" d="M403.3,31.76a35,35,0,0,0-14.54,28.42v75.44h19.1V44a18.55,18.55,0,0,0-4.56-12.22"/><path class="cls-2" d="M508.34,25.22A36.75,36.75,0,0,0,471.59,62V99a36.75,36.75,0,0,0,73.5,0V90H526v9a17.65,17.65,0,0,1-35.29,0V62A17.64,17.64,0,0,1,520.81,49.5L534.32,36a36.55,36.55,0,0,0-26-10.76"/><polyline class="cls-5" points="545.09 70.93 508.34 70.93 508.34 90.04 525.98 90.04 525.98 70.93 545.09 70.93 545.09 90.04 545.09 70.93"/><polyline class="cls-7" points="545.09 70.93 525.98 70.93 525.98 90.04 545.09 90.04 545.09 70.93"/><path class="cls-5" d="M638.21,25.06a36.8,36.8,0,0,0-36.76,36.75v37a36.76,36.76,0,0,0,73.51,0v-37a36.8,36.8,0,0,0-36.75-36.75m0,91.41a17.66,17.66,0,0,1-17.65-17.64v-37a17.65,17.65,0,1,1,35.29,0v37a17.66,17.66,0,0,1-17.64,17.64"/><path class="cls-5" d="M755.81,100.71a34.88,34.88,0,0,1-14.89,28.58,17.81,17.81,0,0,0,13.63,6.33h9.55V116.51h-8.29v-15.8"/><path class="cls-3" d="M755.81,25.1H736.7v0h19.11v0m-50.72,0H686v75.61a34.89,34.89,0,0,0,54.93,28.58,17.76,17.76,0,0,1-4.22-11.51V100.71a15.81,15.81,0,0,1-31.61,0V25.1"/><path class="cls-10" d="M755.81,25.14H736.7v92.64a17.78,17.78,0,0,0,4.22,11.51,34.92,34.92,0,0,0,14.89-28.58V25.14"/><polyline class="cls-11" points="811.85 44.16 792.75 44.16 792.75 135.57 811.85 135.57 811.85 44.16"/><polyline class="cls-8" points="834.25 25.05 770.35 25.05 770.35 44.16 792.75 44.16 792.75 25.05 811.85 25.05 811.85 44.16 834.25 44.16 834.25 25.05"/><polyline class="cls-12" points="811.85 25.05 792.75 25.05 792.75 44.16 811.85 44.16 811.85 25.05"/></svg>