<svg id="Layer_1" data-name="Layer 1" xmlns="http://www.w3.org/2000/svg" viewBox="0 0 1573 480"><defs><style>.cls-1{fill:#582e90;}.cls-2,.cls-8{fill:#008c45;}.cls-2,.cls-3,.cls-4,.cls-5,.cls-6,.cls-7,.cls-9{stroke:#fff;}.cls-2,.cls-3,.cls-4,.cls-7{stroke-linecap:round;stroke-linejoin:round;}.cls-2,.cls-3,.cls-4,.cls-5,.cls-6,.cls-7{stroke-width:2px;}.cls-3,.cls-9{fill:none;}.cls-4{fill:#fff;}.cls-5,.cls-7{fill:#45b877;}.cls-5,.cls-6,.cls-9{stroke-miterlimit:10;}.cls-6{fill:#006635;}.cls-9{stroke-width:3px;}</style></defs><title>Artboard 9illustrations</title><rect class="cls-1" x="2" y="1.14" width="1581" height="479.86"/><g id="zFBHSh.tif"><path class="cls-2" d="M925.65,225.27c-7.76-5.24-15.37-10.74-23.38-15.64-12-7.36-23.51-16-37.18-19.95-4.12-1.19-7.89-3.79-12-5.17-36.66-12.32-75.88-13.7-113.76-8.49-33.48,4.61-71.83,20.45-96.17,48-5.57,6.31-12.48,11-18.12,17.21-6,6.6-10.51,14.31-15.59,21.7-3,4.31-9.94,10.41-9.27,16.35.93,8.1,2.22,12.81,8.71,17.95,7.73,6.14,17,10.38,25.88,14.13,17.91,7.55,36.11,13.61,53.75,22s35.75,17.47,55,20.62c29.29,4.8,59-.47,87.71-6.61,21.31-4.55,44.36-9.51,63.27-21.68,20.36-13.11,39.16-31.44,56.33-49,9.76-10,6-22,.25-33.48a14.53,14.53,0,0,0-2.36-3.66,15.91,15.91,0,0,0-4.49-3A191.25,191.25,0,0,1,925.65,225.27Z"/><path class="cls-3" d="M877.33,255.72c-5.16,5.07-10.18,10.31-15.49,15.18-14.12,12.93-29,24.31-47.76,28.2A136,136,0,0,1,774,301a239.5,239.5,0,0,1-40-6.6c-12.75-3.36-25.2-8.14-38-11.09-8.43-1.94-17.61-.44-25.87-2.84-9.38-2.74-17.85,2.71-26.79,1.07-3.3-.6-7-.68-9.75-2.42-5.68-3.58-5.82-8.65-.74-13.46,2.77-2.62,5.76-5.57,9.13-6.74,13.28-4.61,23-15.66,35.1-22.2,18.6-10,36.28-22.48,56.93-27.32,29.89-7,59.88-6.22,88.38,5.68,18.15,7.58,34.72,19.56,52.19,29.14,10.09,5.53,20.58,10.21,30.88,15.3,6.11,3,8.87,13.49,15,16.53"/><path class="cls-3" d="M871.7,288.42c-20,14.45-41.77,23.72-66.06,25.09-5.62.32-11.24.52-16.86.77"/><path class="cls-3" d="M651,256.48c.44,5.86,1.69,10.4,8.39,11.65,4.7.87,4,5.65,2.85,9.65"/></g><path class="cls-4" d="M883.5,248c-5.16,5.07-15.74,17.41-21.06,22.28-14.12,12.92-29,24.31-47.75,28.19a135.7,135.7,0,0,1-40.1,1.92,239.5,239.5,0,0,1-40-6.6c-12.75-3.36-25.2-8.14-38-11.09-8.43-1.94-17.61-.44-25.87-2.85-9.38-2.73-17.85,2.72-26.78,1.08-3.31-.61-7-.69-9.76-2.42-5.68-3.59-5.82-8.65-.74-13.46,2.77-2.63,5.76-5.57,9.14-6.74,13.28-4.61,23-15.66,35.09-22.21,18.6-10,36.28-22.48,56.93-27.31,29.89-7,59.88-6.22,88.38,5.67,18.16,7.58,34.72,19.56,52.2,29.15,10.09,5.53,20.58,10.21,30.88,15.3,6.1,3,12.18,6.08,18.27,9.12Z"/><ellipse class="cls-5" cx="773.43" cy="241.96" rx="42.8" ry="46.32"/><ellipse class="cls-6" cx="773.15" cy="241.65" rx="18.25" ry="19.75"/><path class="cls-7" d="M644.15,258.33,637,262.92s-8.59,5.52-8.3,8.6a8.07,8.07,0,0,0,4.45,6.88c2.86,1.58,5.73,2.94,7.6,3.16s8.4.57,9.78.79c1.61.25,3.81-1.19,4.88-2.25,2.4-2.37,1.06-5.33-.31-8a32.91,32.91,0,0,1-2.67-5.26C651.3,263.11,649.51,256.86,644.15,258.33Z"/><path class="cls-8" d="M813.21,210s-38.43-12.4-84.94-.36S740.4,183,740.4,183L793,187.35l32.7,12.76"/><path class="cls-9" d="M741.5,208.5s46-11,74,4"/><path class="cls-2" d="M609.49,146.78s-18.28,28.45,0,19.61,85.73-32.3,101-32.69,129.69-3.46,161,6.54S918,149.85,918,145.62,712.19,76,609.49,146.78Z"/></svg>