<svg id="Layer_1" data-name="Layer 1" xmlns="http://www.w3.org/2000/svg" viewBox="0 0 1573 480"><defs><style>.cls-1{fill:#03a580;}.cls-2,.cls-3{fill:#ee463e;}.cls-3,.cls-4,.cls-5{stroke:#fff;stroke-linecap:round;stroke-linejoin:round;stroke-width:2px;}.cls-4{fill:none;}.cls-5{fill:#d81f26;}</style></defs><title>Artboard 8ilstrtions</title><rect class="cls-1" x="1" y="-1.57" width="1573" height="481.57"/><g id="Layer_2" data-name="Layer 2"><polygon class="cls-2" points="993 356 993 362 994 368 998 372 1004 374 1008 379 1013 383 1018 383 1009 370 999 358 993 356"/></g><path class="cls-3" d="M902.2,331.42l.12-.09-.37-.61Z"/><path class="cls-3" d="M1026,305.29c-.29-1.9-.83-3.09-1.65-3.35l-4.61,2.4Z"/><path class="cls-3" d="M972.72,378.89c0-.12-1.77-4.35-1.83-4.45-1.51-2.29-4.65-6.51-7-8.15-7.6-5.38-15.76-9.28-25.11-10.68-7.22-1.09-13.22-4.61-18.64-9.69-5.58-5.21-11.94-9.59-18-14.32a1.07,1.07,0,0,1-.2-.23l-.53-.88-.12.09c-.08-.23-.17-.46-.25-.7l.37.61c5.92-4.82,11.9-1.42,17.95-.2,3.28.66,6.81.12,10.06.86A117.41,117.41,0,0,1,942,335.21c5.31,1.84,10.54,3.91,15.87,5.65,8.71,2.86,17.91,4.64,26.09,8.57,6.78,3.25,12.94,8.4,18.37,13.72,5,4.92,8.35,11.55,13.15,16.75l.74.76,3.25,3.25.07.06c.86.69,17,13.28,17.39.14a.92.92,0,0,0-.15-.51c-3.74-5.5-9.11-11.2-11.77-16.55-3.39-6.85-14.07-21.7-13.3-21.22a7,7,0,0,0,2.08.69.87.87,0,0,0,.87-.32.84.84,0,0,0,0-1,39.59,39.59,0,0,1-3.82-6.16c-2.64-6.19-7.68-11-9.25-18-1-4.62-4.85-8.61-7.46-12.88A.91.91,0,0,0,994,308l-2.3-1.83a.7.7,0,0,0-.24-.13,14.08,14.08,0,0,1-4.47-2.5c-8.7-7-16.93-14.69-26-21.22a188.49,188.49,0,0,0-27.36-16.88c-28.43-13.86-57.22-26.95-85.79-40.49-8-3.82-15.87-8.14-23.77-12.27-6.51-3.4-12.82-7.25-19.53-10.19-7.7-3.37-15.89-5.62-23.58-9-6.71-2.94-13-6.93-19.54-10.17-14.43-7.09-28.94-14-43.42-21-13.21-6.38-26.49-12.64-39.61-19.21-9.85-4.93-19.82-9.75-29.19-15.51-18.38-11.28-37.92-20.29-57.18-29.87-12.29-6.12-25.67.41-35.19,8.59-10,8.6-19.62,20.69-20.9,34.25a36.59,36.59,0,0,0,0,6.28c.06.62.12,1.23.2,1.85,1.64,12.66,7.74,26.56,16.65,35.78l.33.33a8.49,8.49,0,0,0,3.75,2.16l.23.06q18.25,4.75,36.36,10.09c17.28,5.07,34.56,10.17,51.73,15.62,14.91,4.73,29.62,10.08,44.48,15,11.06,3.64,22.18,7.06,33.32,10.44,9.81,3,19.55,6.39,29.56,8.46,7.7,1.59,13.9,5.13,19.67,10a3.8,3.8,0,0,0,1.42.67c13.93,4.05,21.77,15.16,30.23,25.71,12.46,15.55,24.93,31.12,38,46.11a72.49,72.49,0,0,0,25.65,19.19c19.08,8.27,38,16.88,57.19,24.93,6.16,2.59,12.84,3.93,19.33,5.71,9,2.46,18,4.8,27,7.18a.84.84,0,0,0,1-.57c.08-.25.15-.51.21-.77a.51.51,0,0,0,0-.13"/><path class="cls-3" d="M1014,311.49c5.47,1.34,11,1.38,16.07-1.23,1.45-.74,2.58-3.1,2.85-4.87.31-2-1.58-2.53-3.43-2.24l-5.21-1.21h0c-7.44-2.27-14.95-4.34-22.41-6.55-8.13-2.41-16.23-4.89-24.34-7.35l-14.17-4.34,29.06,23.23a15.74,15.74,0,0,0,5.06.68C1003,307.53,1008.49,310.15,1014,311.49Z"/><path class="cls-4" d="M649.37,127.77c9.37,5.75,19.33,10.57,29.18,15.5,13.13,6.57,26.4,12.84,39.62,19.22,14.47,7,29,13.9,43.41,21,6.59,3.24,12.84,7.22,19.55,10.16,7.69,3.38,15.88,5.63,23.57,9,6.71,2.94,13,6.79,19.53,10.19C832.14,217,840,221.28,848,225.09c28.58,13.55,57.37,26.64,85.79,40.49a188.35,188.35,0,0,1,27.36,16.89c9.06,6.52,17.29,14.19,26,21.22a13.87,13.87,0,0,0,9.66,3.22c5.48-.09,11,2.53,16.51,3.88s11,1.38,16.08-1.23c1.45-.74,2.58-3.1,2.85-4.88.31-2-1.58-2.52-3.43-2.23l-5.21-1.21"/><path class="cls-4" d="M557.22,187.2c12.18,3.16,24.3,6.55,36.37,10.09,17.28,5.07,34.56,10.16,51.72,15.61,14.91,4.74,29.63,10.09,44.49,15,11.05,3.64,22.18,7.05,33.32,10.43,9.81,3,19.54,6.4,29.55,8.47,7.7,1.59,13.9,5.13,19.68,10a3.8,3.8,0,0,0,1.42.67c13.93,4.05,21.77,15.15,30.23,25.71,12.46,15.55,24.93,31.11,38,46.11a72.64,72.64,0,0,0,25.66,19.19c19.08,8.27,38,16.88,57.19,24.93,6.15,2.58,12.84,3.93,19.32,5.7,9.26,2.53,18.55,4.93,27.81,7.39,2.58-6.51-.85-15-8-20.06-7.6-5.38-15.76-9.29-25.11-10.69-7.23-1.08-13.22-4.6-18.65-9.68-5.61-5.25-12-9.65-18.08-14.42"/><path class="cls-4" d="M901.25,330l.25.7c6-5,12-1.52,18.06-.3,3.28.66,6.81.13,10.06.87a119.83,119.83,0,0,1,12.55,4c5.3,1.85,10.53,3.91,15.87,5.66,8.71,2.86,17.91,4.64,26.09,8.56,6.78,3.26,12.93,8.4,18.37,13.73,5,4.92,8.34,11.54,13.15,16.74a35.31,35.31,0,0,0,11.64,8.32c5.4,2.32,8.16.7,9.9-3.81"/><path class="cls-4" d="M935.27,274.77c15.7,14.79,34.05,26.11,51.12,39.1,4.61,3.51,8.78,7.6,13.25,11.3.75.62,2,.62,3,.91"/><path class="cls-4" d="M923.34,285.39c5.35,4.24,10.47,8.81,16.08,12.65,8.87,6.08,17.87,12,27.16,17.37,11,6.4,22.65,11.85,33.59,18.41,3.88,2.33,6.54,6.7,9.75,10.13a11,11,0,0,0,2,2,10.47,10.47,0,0,0,2.61.82l.7-.92c-1.4-2.21-3.13-4.28-4.14-6.66-2.64-6.19-7.68-11-9.26-18-1-4.66-4.92-8.69-7.53-13"/><path class="cls-4" d="M962.68,283c4.72,1.44,9.44,2.9,14.17,4.33,8.11,2.46,16.21,4.95,24.34,7.36,7.46,2.21,15,4.28,22.41,6.55"/><path class="cls-4" d="M1025.21,374.29c3.29,2.81,3.35,9.57,10.39,8.69-3.75-5.58-7.73-10.36-10.42-15.79-3.39-6.85-6.83-13.56-11.88-19.33"/><path class="cls-4" d="M992.89,356.81c-1.08,9.67,4,17.5,10.44,16.65-.13-2.84-.26-5.65-.39-8.46"/><path class="cls-4" d="M1004.09,373.64c2.5,2.91,4.77,6.07,7.6,8.6,1.13,1,3.5.66,5.3.93"/><path class="cls-4" d="M922.09,310.27l12.06,3.92"/><path class="cls-4" d="M933.09,365.8q.12,4.69.23,9.37"/><path class="cls-4" d="M990,298.73l8.93.71"/><path class="cls-5" d="M968,385.09c1.42-8.63-6.65-6.82-10.25-10.24l-3,6.35"/></svg>