<svg id="Layer_1" data-name="Layer 1" xmlns="http://www.w3.org/2000/svg" viewBox="0 0 399 101"><defs><style>.cls-1{fill:#05ce7c;}.cls-2{fill:#ff4338;}.cls-3{fill:#05361b;}.cls-4{fill:#ff6b00;}.cls-5{fill:#00b3e3;}.cls-6{fill:#004b00;}.cls-7{fill:#da3ab3;}.cls-8{fill:#00299f;}.cls-9{fill:#ffc843;}.cls-10{fill:#da2d2f;}.cls-11{fill:#008c3c;}.cls-12{fill:#00202a;}.cls-13{fill:#002f32;}</style></defs><title>Artboard 4queeries</title><path class="cls-1" d="M41.87,18.08A20.94,20.94,0,0,0,21,39V60.06a20.91,20.91,0,0,0,31.55,18,10.33,10.33,0,0,1-.85-.78l-7.44-7.47a10,10,0,0,1-12.37-9.76V39A10,10,0,1,1,51.9,39V60.06A9.92,9.92,0,0,1,51.73,62l7.63,7.66a1.64,1.64,0,0,0,.88.46,20.84,20.84,0,0,0,2.55-10V39A20.94,20.94,0,0,0,41.87,18.07"/><path class="cls-2" d="M44.59,54.79l-7.71,7.68,7.33,7.35A10.06,10.06,0,0,0,51.73,62l-7.14-7.16M60.24,70.07a21.18,21.18,0,0,1-7.74,8,12.61,12.61,0,0,0,8,2.9H66V70.1H60.54a1.53,1.53,0,0,1-.3,0"/><path class="cls-3" d="M51.73,62a10.09,10.09,0,0,1-7.52,7.88l7.44,7.46c.27.28.56.54.85.79a21.18,21.18,0,0,0,7.74-8,1.64,1.64,0,0,1-.88-.46L51.73,62"/><path class="cls-4" d="M111.12,61.12a19.87,19.87,0,0,1-8.48,16.29A10.17,10.17,0,0,0,110.4,81h5.45V70.13h-4.73v-9"/><path class="cls-5" d="M111.12,18.05H100.24v0h10.88v0m-28.88,0H71.35V61.12a19.88,19.88,0,0,0,31.3,16.29,10.13,10.13,0,0,1-2.41-6.56V61.12a9,9,0,0,1-18,0V18.05"/><path class="cls-6" d="M111.12,18.08H100.24V70.85a10.13,10.13,0,0,0,2.4,6.55,19.84,19.84,0,0,0,8.48-16.28v-43"/><path class="cls-7" d="M121.21,36.58h0v26a18.48,18.48,0,0,0,18.46,18.46H159.8V70.2H139.67a7.59,7.59,0,0,1-7.57-7.58v-9.2a18.5,18.5,0,0,1-10.89-16.84"/><path class="cls-5" d="M132.09,36.58h0V53.42a18.51,18.51,0,0,0,7.58,1.63H159.8V44.16H139.67a7.59,7.59,0,0,1-7.58-7.58"/><path class="cls-8" d="M159.8,18.12H139.67a18.46,18.46,0,0,0-7.58,35.3V36.58A7.59,7.59,0,0,1,139.67,29H159.8V18.12"/><path class="cls-7" d="M167,36.58h0v26a18.48,18.48,0,0,0,18.46,18.46h20.13V70.2H185.48a7.6,7.6,0,0,1-7.58-7.58v-9.2A18.49,18.49,0,0,1,167,36.58"/><path class="cls-5" d="M177.9,36.58h0V53.42a18.51,18.51,0,0,0,7.58,1.63h20.13V44.16H185.48a7.59,7.59,0,0,1-7.58-7.58"/><path class="cls-8" d="M205.61,18.12H185.48a18.46,18.46,0,0,0-7.58,35.3V36.58A7.59,7.59,0,0,1,185.48,29h20.13V18.12"/><polyline class="cls-7" points="211.03 18.03 211.03 18.03 211.03 28.91 215.75 28.91 215.75 80.98 226.64 80.98 226.64 54.93 215.75 54.93 215.75 44.04 215.75 44.03 226.64 44.03 226.64 28.91 211.03 28.91 211.03 18.03"/><path class="cls-9" d="M234.2,18H216.47A10.19,10.19,0,0,1,226.64,28.2v.71h7.56A7.57,7.57,0,0,1,234.48,44a18.4,18.4,0,0,1,12.8,5.44A18.44,18.44,0,0,0,234.2,18m0,36.89h0"/><path class="cls-10" d="M216.47,18H211V28.91h15.61V28.2A10.18,10.18,0,0,0,216.47,18m-.72,26h0V54.93h0V44"/><path class="cls-5" d="M234.2,44h0m13.08,5.44a18.36,18.36,0,0,1-12.8,5.44,7.59,7.59,0,0,1,7.29,7.56V81h10.88V62.48a18.38,18.38,0,0,0-5.37-13"/><polyline class="cls-8" points="226.64 44.03 215.75 44.03 215.75 44.04 226.64 44.04 226.64 44.03"/><path class="cls-11" d="M234.48,44h-7.84V54.92h7.84a18.41,18.41,0,0,0,12.8-5.45A18.4,18.4,0,0,0,234.48,44"/><polyline class="cls-12" points="226.64 44.04 215.75 44.04 215.75 54.92 226.64 54.92 226.64 44.04"/><path class="cls-5" d="M275.5,18.18H264.62v.12H275.5v-.12m0,11H264.62V70.25H275.5V29.18"/><path class="cls-2" d="M280.22,70.25H275.5V81.13h4.72V70.25m-15.6,0H259.9V81.13h4.72V70.25"/><polyline class="cls-13" points="275.5 70.25 264.62 70.25 264.62 81.13 275.5 81.13 275.5 70.25"/><path class="cls-2" d="M280.22,18.3H275.5V29.18h4.72V18.3m-15.6,0H259.9V29.18h4.72V18.3"/><polyline class="cls-13" points="275.5 18.3 264.62 18.3 264.62 29.18 275.5 29.18 275.5 18.3"/><path class="cls-7" d="M287.44,36.58h0v26A18.48,18.48,0,0,0,305.9,81.08H326V70.2H305.9a7.6,7.6,0,0,1-7.58-7.58v-9.2a18.49,18.49,0,0,1-10.88-16.84"/><path class="cls-5" d="M298.32,36.58h0V53.42a18.51,18.51,0,0,0,7.58,1.63H326V44.16H305.9a7.59,7.59,0,0,1-7.58-7.58"/><path class="cls-8" d="M326,18.12H305.9a18.46,18.46,0,0,0-7.58,35.3V36.58A7.59,7.59,0,0,1,305.9,29H326V18.12"/><path class="cls-1" d="M352.38,16.41c-10.46,0-18.68,7.48-19.12,17.4-.28,6.4,2.5,15.09,17.32,20.18,10.09,3.46,9.9,7.79,9.84,9.21-.17,3.94-3.56,6.8-8,6.8-5.41,0-7.56-2.68-8.41-4.93L333.61,69c1.07,2.84,5.6,12.08,18.77,12.08,10.46,0,18.68-7.48,19.12-17.39.28-6.4-2.5-15.1-17.32-20.19-10.09-3.46-9.9-7.78-9.84-9.2.17-3.94,3.56-6.8,8-6.8,5.41,0,7.56,2.67,8.41,4.92l10.36-3.93c-1.07-2.83-5.6-12.08-18.77-12.08"/></svg>